<svg xmlns="http://www.w3.org/2000/svg" width="24" height="24" viewBox="0 0 24 24">
  <g id="Appointment_" data-name="Appointment " transform="translate(-860 485)">
    <rect id="Rectangle_48" data-name="Rectangle 48" width="24" height="24" transform="translate(860 -485)" fill="none"/>
    <path id="medkit" d="M8.12,13.474h.765v.765a.765.765,0,1,0,1.53,0v-.765h.765a.765.765,0,1,0,0-1.53h-.765v-.765a.765.765,0,1,0-1.53,0v.765H8.12a.765.765,0,1,0,0,1.53ZM15,5.06h-1.53V4.295A2.3,2.3,0,0,0,11.179,2H8.12A2.3,2.3,0,0,0,5.825,4.295V5.06H4.295A2.3,2.3,0,0,0,2,7.355V15A2.3,2.3,0,0,0,4.295,17.3H15A2.3,2.3,0,0,0,17.3,15V7.355A2.3,2.3,0,0,0,15,5.06ZM7.355,4.295A.765.765,0,0,1,8.12,3.53h3.06a.765.765,0,0,1,.765.765V5.06H7.355ZM15.769,15a.765.765,0,0,1-.765.765H4.295A.765.765,0,0,1,3.53,15V9.649H15.769Zm0-6.884H3.53V7.355a.765.765,0,0,1,.765-.765H15a.765.765,0,0,1,.765.765Z" transform="translate(862 -483)" fill="#0c72ad"/>
  </g>
</svg>
