<svg xmlns="http://www.w3.org/2000/svg" width="28" height="28" viewBox="0 0 28 28">
  <g id="Eye_Normal" data-name="Eye / Normal" transform="translate(-706 541)">
    <rect id="Rectangle_36" data-name="Rectangle 36" width="28" height="28" transform="translate(706 -541)" fill="none"/>
    <path id="eye" d="M21.92,11.6C19.9,6.91,16.1,4,12,4S4.1,6.91,2.08,11.6a1,1,0,0,0,0,.8C4.1,17.09,7.9,20,12,20s7.9-2.91,9.92-7.6A1,1,0,0,0,21.92,11.6ZM12,18c-3.17,0-6.17-2.29-7.9-6C5.83,8.29,8.83,6,12,6s6.17,2.29,7.9,6C18.17,15.71,15.17,18,12,18ZM12,8a4,4,0,1,0,4,4A4,4,0,0,0,12,8Zm0,6a2,2,0,1,1,2-2A2,2,0,0,1,12,14Z" transform="translate(708.003 -539)" fill="#bcbcbc"/>
  </g>
</svg>
