<svg xmlns="http://www.w3.org/2000/svg" width="271.597" height="21.233" viewBox="0 0 271.597 21.233">
  <g id="Name" transform="translate(-78.64 -244.1)">
    <g id="Layer_1" data-name="Layer 1" transform="translate(78.64 244.1)">
      <path id="Path_5" data-name="Path 5" d="M178.427,54.361V67.323H174.64V46.1h3.787l6.441,14.045L191.308,46.1H195.1V67.323h-3.792V54.361l-4.544,9.927h-3.792Z" transform="translate(-174.64 -46.1)" fill="#d4d4d4"/>
      <path id="Path_6" data-name="Path 6" d="M255.2,46.1l-.757,3.01H242.317v6.084h9.851V58.2h-9.851v6.084h12.129l.757,3.01H238.53V46.1Z" transform="translate(-206.483 -46.1)" fill="#d4d4d4"/>
      <path id="Path_7" data-name="Path 7" d="M309.271,61.258a5.839,5.839,0,0,1-1.771,4.289q-1.776,1.776-6.566,1.776H293.36V46.1h7.574q4.8,0,6.566,1.776a5.823,5.823,0,0,1,1.771,4.289Zm-8.337,3.01c2.147,0,3.436-.3,3.882-.888a3.441,3.441,0,0,0,.667-2.142V52.164a3.466,3.466,0,0,0-.667-2.147c-.446-.592-1.736-.888-3.882-.888h-3.787V64.288Z" transform="translate(-233.81 -46.1)" fill="#d4d4d4"/>
      <path id="Path_8" data-name="Path 8" d="M364.522,52.164v.908l-3.787.607v-1.5a3.511,3.511,0,0,0-.667-2.147q-.667-.888-3.882-.888t-3.877.888a3.466,3.466,0,0,0-.667,2.147v9.084a3.441,3.441,0,0,0,.667,2.142q.662.888,3.877.888t3.882-.888a3.471,3.471,0,0,0,.667-2.142v-1.5l3.787.607v.908a5.859,5.859,0,0,1-1.771,4.289q-1.776,1.776-6.566,1.776c-3.2,0-5.377-.592-6.561-1.776a5.844,5.844,0,0,1-1.776-4.289v-9.1a5.828,5.828,0,0,1,1.776-4.289c1.184-1.184,3.366-1.776,6.561-1.776s5.382.592,6.566,1.776a5.844,5.844,0,0,1,1.771,4.289Z" transform="translate(-260.967 -46.1)" fill="#0c72ad"/>
      <path id="Path_9" data-name="Path 9" d="M420.862,61.258a5.844,5.844,0,0,1-1.776,4.289q-1.766,1.776-6.561,1.776t-6.561-1.776a5.844,5.844,0,0,1-1.776-4.289V52.164a5.829,5.829,0,0,1,1.776-4.289q1.766-1.776,6.561-1.776t6.561,1.776a5.829,5.829,0,0,1,1.776,4.289Zm-8.337,3.01q3.21,0,3.882-.888a3.471,3.471,0,0,0,.667-2.142V52.164a3.511,3.511,0,0,0-.667-2.147q-.667-.888-3.882-.888t-3.877.888a3.466,3.466,0,0,0-.667,2.147v9.094a3.441,3.441,0,0,0,.667,2.142q.662.888,3.877.888Z" transform="translate(-289.047 -46.1)" fill="#0c72ad"/>
      <path id="Path_10" data-name="Path 10" d="M464.317,52.345V67.323H460.53V46.1h3.787l9.094,15v-15H477.2V67.323h-3.792Z" transform="translate(-317.127 -46.1)" fill="#0c72ad"/>
      <path id="Path_11" data-name="Path 11" d="M520.657,52.345V67.323H516.87V46.1h3.787l9.094,15v-15h3.792V67.323h-3.792Z" transform="translate(-345.207 -46.1)" fill="#0c72ad"/>
      <path id="Path_12" data-name="Path 12" d="M589.873,46.1l-.757,3.01H576.992v6.084h9.851V58.2h-9.851v6.084h12.124l.757,3.01H573.2V46.1Z" transform="translate(-373.282 -46.1)" fill="#0c72ad"/>
      <path id="Path_13" data-name="Path 13" d="M644.688,52.164v.908l-3.787.607v-1.5a3.511,3.511,0,0,0-.667-2.147q-.667-.888-3.882-.888t-3.877.888a3.466,3.466,0,0,0-.667,2.147v9.084a3.441,3.441,0,0,0,.667,2.142q.662.888,3.877.888t3.882-.888a3.471,3.471,0,0,0,.667-2.142v-1.5l3.787.607v.908a5.859,5.859,0,0,1-1.771,4.289q-1.776,1.776-6.566,1.776c-3.19,0-5.382-.592-6.561-1.776a5.844,5.844,0,0,1-1.791-4.3V52.164a5.829,5.829,0,0,1,1.776-4.289c1.179-1.184,3.371-1.776,6.561-1.776s5.382.592,6.566,1.776A5.844,5.844,0,0,1,644.688,52.164Z" transform="translate(-400.594 -46.1)" fill="#0c72ad"/>
      <path id="Path_14" data-name="Path 14" d="M700.286,46.1v3.01h-6.069V67.323h-3.787V49.13H684.37V46.12Z" transform="translate(-428.689 -46.1)" fill="#0c72ad"/>
    </g>
  </g>
</svg>
