<svg xmlns="http://www.w3.org/2000/svg" width="28" height="28" viewBox="0 0 28 28">
  <g id="Today_s_Activity_Active" data-name="Today’s Activity / Active" transform="translate(-502 494)">
    <rect id="Rectangle_32" data-name="Rectangle 32" width="28" height="28" transform="translate(502 -494)" fill="none"/>
    <path id="map" d="M21.32,5.05l-6-2h-.07a.7.7,0,0,0-.14,0h-.43L9,5,3.32,3.05A1.008,1.008,0,0,0,2,4V18a1,1,0,0,0,.68.95l6,2h0a1,1,0,0,0,.62,0h0l5.7-1.9L20.68,21A1.19,1.19,0,0,0,21,21a.94.94,0,0,0,.58-.19A1,1,0,0,0,22,20V6A1,1,0,0,0,21.32,5.05ZM8,18.61,4,17.28V5.39L8,6.72Zm6-1.33-4,1.33V6.72l4-1.33Zm6,1.33-4-1.33V5.39l4,1.33Z" transform="translate(504 -492)" fill="#fff"/>
  </g>
</svg>
