<svg xmlns="http://www.w3.org/2000/svg" width="38" height="38" viewBox="0 0 38 38">
  <g id="Face_ID" data-name="Face ID" transform="translate(-343 301)">
    <rect id="Rectangle_25" data-name="Rectangle 25" width="38" height="38" transform="translate(343 -301)" fill="none"/>
    <path id="Face_ID-2" data-name="Face ID" d="M26.863,32.061h-3.6A.817.817,0,0,1,22.946,32a.829.829,0,0,1-.259-.175.814.814,0,0,1,0-1.151.814.814,0,0,1,.259-.174.8.8,0,0,1,.317-.064h3.6a3.573,3.573,0,0,0,3.569-3.569v-3.6a.814.814,0,0,1,.5-.75.814.814,0,0,1,1.131.75v3.6A5.2,5.2,0,0,1,26.863,32.061Zm-18.065,0H5.2a5.2,5.2,0,0,1-5.2-5.2v-3.6a.812.812,0,0,1,.239-.576.816.816,0,0,1,.892-.174.806.806,0,0,1,.259.174.812.812,0,0,1,.239.576v3.6A3.573,3.573,0,0,0,5.2,30.433H8.8A.815.815,0,0,1,9.115,32,.821.821,0,0,1,8.8,32.061Zm17.55-5.292H6.007s0,0,.013-.008a26.167,26.167,0,0,1,3.135-1.34,21.637,21.637,0,0,1,6.963-1.348,22.2,22.2,0,0,1,7.024,1.348,26.9,26.9,0,0,1,3.207,1.347ZM16.317,22.328a7.728,7.728,0,1,1,5.465-2.264A7.679,7.679,0,0,1,16.317,22.328Zm0-13.74A6.011,6.011,0,1,0,22.328,14.6,6.018,6.018,0,0,0,16.317,8.588Zm14.93,1.024a.815.815,0,0,1-.814-.814V5.2a3.573,3.573,0,0,0-3.569-3.569h-3.6a.814.814,0,0,1,0-1.628h3.6a5.2,5.2,0,0,1,5.2,5.2V8.8A.815.815,0,0,1,31.247,9.612Zm-30.433,0A.815.815,0,0,1,0,8.8V5.2A5.2,5.2,0,0,1,5.2,0H8.8a.814.814,0,1,1,0,1.628H5.2A3.573,3.573,0,0,0,1.628,5.2V8.8A.815.815,0,0,1,.814,9.612Z" transform="translate(345.97 -298.03)" fill="#fff"/>
  </g>
</svg>
