<svg xmlns="http://www.w3.org/2000/svg" width="38" height="38" viewBox="0 0 38 38">
  <g id="Fingerprint" transform="translate(-182 392)">
    <rect id="Rectangle_52" data-name="Rectangle 52" width="38" height="38" transform="translate(182 -392)" fill="none"/>
    <path id="Fingerprint-2" data-name="Fingerprint" d="M26.863,32.061h-3.6a.814.814,0,1,1,0-1.628h3.6a3.573,3.573,0,0,0,3.569-3.569v-3.6a.814.814,0,0,1,1.628,0v3.6A5.2,5.2,0,0,1,26.863,32.061Zm-18.065,0H5.2a5.2,5.2,0,0,1-5.2-5.2v-3.6a.814.814,0,0,1,1.628,0v3.6A3.573,3.573,0,0,0,5.2,30.433H8.8a.814.814,0,0,1,0,1.628Zm7.1-8.568a.862.862,0,0,1-.551-1.526,8.372,8.372,0,0,0,3.041-6.46,2.311,2.311,0,1,0-4.622,0,3.776,3.776,0,0,1-3.772,3.771.861.861,0,1,1,0-1.723,2.051,2.051,0,0,0,2.048-2.048,4.034,4.034,0,1,1,8.068,0,10.1,10.1,0,0,1-3.664,7.787A.858.858,0,0,1,15.894,23.493Zm-3.535-1.519a.861.861,0,0,1-.336-1.655,5.216,5.216,0,0,0,3.189-4.811.862.862,0,1,1,1.723,0,6.935,6.935,0,0,1-4.242,6.4A.841.841,0,0,1,12.359,21.973Zm9.689-2.583a.861.861,0,0,1-.836-1.071,11.552,11.552,0,0,0,.346-2.812,5.484,5.484,0,0,0-10.964-.223.86.86,0,0,1-.864.827H9.7a.864.864,0,0,1-.827-.9,7.208,7.208,0,0,1,14.41.293,13.312,13.312,0,0,1-.4,3.231A.86.86,0,0,1,22.048,19.39Zm9.2-9.778a.815.815,0,0,1-.814-.814V5.2a3.573,3.573,0,0,0-3.569-3.569h-3.6a.814.814,0,1,1,0-1.628h3.6a5.2,5.2,0,0,1,5.2,5.2V8.8A.815.815,0,0,1,31.247,9.612Zm-30.433,0A.815.815,0,0,1,0,8.8V5.2A5.2,5.2,0,0,1,5.2,0H8.8a.814.814,0,0,1,0,1.628H5.2A3.573,3.573,0,0,0,1.628,5.2V8.8A.815.815,0,0,1,.814,9.612Z" transform="translate(184.97 -389.03)" fill="#fff"/>
  </g>
</svg>
