<svg xmlns="http://www.w3.org/2000/svg" width="160" height="160" viewBox="0 0 160 160">
  <g id="Logo" transform="translate(84 586)">
    <rect id="Rectangle_28" data-name="Rectangle 28" width="160" height="160" transform="translate(-84 -586)" fill="none"/>
    <g id="Group_8" data-name="Group 8" transform="translate(20)">
      <path id="Path_15" data-name="Path 15" d="M12.64,73.4a54.12,54.12,0,0,1,0-12.29A55.09,55.09,0,0,1,51.89,14.48a54.3,54.3,0,0,1,12.29-2.1c1-.06,2-.09,3.07-.09s2.06,0,3.08.09V116a48.231,48.231,0,0,0,12.29-2.38c15.51-5.15,30.63-20.5,33.23-44L101.56,79.79a36.76,36.76,0,0,1-18.94,20.6V34.12c8.73,4.06,14.46,10.61,18.27,21.44l10.68-6.72c-8.22-16.44-16-24-28.95-27.93V1.76A68.129,68.129,0,0,0,70.33.07c-1,0-2-.07-3.08-.07s-2,0-3.07.07A68,68,0,0,0,51.89,1.76,67.32,67.32,0,0,0,.28,61.11C.1,63.13,0,65.18,0,67.25s.1,4.12.28,6.15A67.3,67.3,0,0,0,45.75,131V117.83A55.09,55.09,0,0,1,12.64,73.4Z" transform="translate(-91 -571)" fill="#d4d4d4"/>
      <path id="Path_16" data-name="Path 16" d="M121.87,61.11a54.119,54.119,0,0,1,0,12.29A55.09,55.09,0,0,1,82.62,120a54.3,54.3,0,0,1-12.29,2.1c-1,.06-2,.09-3.08.09s-2,0-3.07-.09V18.53L41.57,50.94l-11.73-15a48.79,48.79,0,0,0-11,25.18,49.88,49.88,0,0,0,0,12.29,48.59,48.59,0,0,0,9.63,23.44l8.79-8.79a36.64,36.64,0,0,1-6-26.94c.14-.8.3-1.59.49-2.37l9.84,12.49,10.32-13.7v75.21a66.271,66.271,0,0,0,12.29,1.69c1,0,2,.08,3.07.08s2.06,0,3.08-.08a66.391,66.391,0,0,0,12.29-1.69A67.29,67.29,0,0,0,134.23,73.4c.18-2,.28-4.07.28-6.15s-.1-4.12-.28-6.14A67.29,67.29,0,0,0,88.76,3.52V16.68A55.09,55.09,0,0,1,121.87,61.11Z" transform="translate(-91 -574.52)" fill="#0c72ad"/>
    </g>
  </g>
</svg>
