<svg xmlns="http://www.w3.org/2000/svg" width="28" height="28" viewBox="0 0 28 28">
  <g id="My_Appointments_Normal" data-name="My Appointments / Normal" transform="translate(-614 541)">
    <rect id="Rectangle_34" data-name="Rectangle 34" width="28" height="28" transform="translate(614 -541)" fill="none"/>
    <path id="copy" d="M21,8.94a1.31,1.31,0,0,0-.06-.27V8.58a1.07,1.07,0,0,0-.19-.28h0l-6-6h0a1.07,1.07,0,0,0-.28-.19.32.32,0,0,0-.09,0A.88.88,0,0,0,14.05,2H9A3,3,0,0,0,6,5V6H5A3,3,0,0,0,2,9V21a3,3,0,0,0,3,3h9a3,3,0,0,0,3-3V20h1a3,3,0,0,0,3-3V8.94ZM15,5.41,17.59,8H16a1,1,0,0,1-1-1ZM15,21a1,1,0,0,1-1,1H5a1,1,0,0,1-1-1V9A1,1,0,0,1,5,8H6v9a3,3,0,0,0,3,3h6Zm4-4a1,1,0,0,1-1,1H9a1,1,0,0,1-1-1V5A1,1,0,0,1,9,4h4V7a3,3,0,0,0,3,3h3Z" transform="translate(617 -540)" fill="#a6cce0"/>
  </g>
</svg>
