<svg xmlns="http://www.w3.org/2000/svg" width="24" height="24" viewBox="0 0 24 24">
  <g id="Phone" transform="translate(-900 478)">
    <rect id="Rectangle_49" data-name="Rectangle 49" width="24" height="24" transform="translate(900 -478)" fill="none"/>
    <path id="phone-2" data-name="phone" d="M15.059,10.25a2.357,2.357,0,0,1-.5-.09,7.071,7.071,0,0,1-.981-.292,1.5,1.5,0,0,0-1.858.749l-.165.337a9.123,9.123,0,0,1-1.992-1.5,9.123,9.123,0,0,1-1.5-1.992l.315-.21A1.5,1.5,0,0,0,9.126,5.4a7.738,7.738,0,0,1-.292-.981c-.037-.165-.067-.337-.09-.509A2.247,2.247,0,0,0,6.5,2.04H4.25A2.247,2.247,0,0,0,2,4.594,14.232,14.232,0,0,0,14.377,16.924h.285a2.242,2.242,0,0,0,2.247-2.255V12.422A2.247,2.247,0,0,0,15.059,10.25Zm.375,4.494a.749.749,0,0,1-.255.562.787.787,0,0,1-.614.187A12.734,12.734,0,0,1,3.546,4.422a.816.816,0,0,1,.187-.614A.749.749,0,0,1,4.3,3.553H6.542a.749.749,0,0,1,.749.592q.045.307.112.607a8.33,8.33,0,0,0,.345,1.161L6.7,6.4a.749.749,0,0,0-.367,1,10.854,10.854,0,0,0,5.243,5.243.794.794,0,0,0,1-.39l.464-1.049a10.255,10.255,0,0,0,1.184.345q.3.067.607.112a.749.749,0,0,1,.592.749Z" transform="translate(905.371 -478.195) rotate(19)" fill="#0c72ad"/>
  </g>
</svg>
