<svg xmlns="http://www.w3.org/2000/svg" width="24" height="24" viewBox="0 0 24 24">
  <g id="Pin" transform="translate(-816 531)">
    <rect id="Rectangle_38" data-name="Rectangle 38" width="24" height="24" transform="translate(816 -531)" fill="none"/>
    <path id="map-marker-alt" d="M17.845,8.445a7.188,7.188,0,1,0-12.23,5.777L10.1,18.713a.846.846,0,0,0,1.2,0l4.466-4.491A7.156,7.156,0,0,0,17.845,8.445ZM14.58,13.029,10.689,16.92,6.8,13.029A5.489,5.489,0,0,1,5.217,8.614,5.557,5.557,0,0,1,7.661,4.529a5.472,5.472,0,0,1,6.056,0A5.557,5.557,0,0,1,16.162,8.6a5.489,5.489,0,0,1-1.582,4.432ZM10.689,5.374A3.806,3.806,0,1,0,14.5,9.181a3.806,3.806,0,0,0-3.806-3.806Zm0,5.921A2.115,2.115,0,1,1,12.8,9.181,2.115,2.115,0,0,1,10.689,11.3Z" transform="translate(817.5 -529.943)" fill="#0c72ad"/>
  </g>
</svg>
